<svg fill="none" xmlns="http://www.w3.org/2000/svg" viewBox="0 0 500 500"><path d="M262.23 51.92 448.92 273.4a16 16 0 0 1-5.31 24.73L256.93 387.8a16 16 0 0 1-13.86 0L56.4 298.12a16 16 0 0 1-5.3-24.73L237.76 51.92a16 16 0 0 1 24.46 0Z" fill="#12161A" stroke="#fff" stroke-width="16" stroke-linejoin="round"/><path d="M250 175v210" stroke="#fff" stroke-width="16" stroke-linecap="round"/><path d="m262.19 51.69 182.15 214.23a16 16 0 0 1-8.05 25.81L254.15 340.6a16 16 0 0 1-8.3 0L63.71 291.73a16 16 0 0 1-8.05-25.81L237.81 51.69a16 16 0 0 1 24.38 0Z" fill="#12161A" stroke="#fff" stroke-width="16" stroke-linejoin="round"/><path d="M250 46 83 305M250 46l167 259" stroke="#fff" stroke-width="16" stroke-linecap="round"/></svg>