<svg width="500" height="500" fill="none" xmlns="http://www.w3.org/2000/svg"><path d="M254.94 60.02 357.67 93.4a16 16 0 0 1 8 5.8l63.49 87.39a16 16 0 0 1 3.05 9.4V304a16 16 0 0 1-3.05 9.41l-63.5 87.38a16 16 0 0 1-8 5.81l-102.72 33.38a16 16 0 0 1-9.88 0L142.33 406.6a16 16 0 0 1-8-5.8l-63.49-87.4a16 16 0 0 1-3.05-9.4V196a16 16 0 0 1 3.05-9.41l63.5-87.38a16 16 0 0 1 8-5.81l102.72-33.38a16 16 0 0 1 9.88 0Z" fill="#fff" stroke="#000" stroke-width="16" stroke-linejoin="round"/><path d="M430.7 191 250 249.71m111.68 154L250 250M138 403.71 249.68 250M69 191l180.7 58.71M250 60v190" stroke="#000" stroke-width="16" stroke-linecap="round"/><path d="m259.4 106.72 123.96 90.06a16 16 0 0 1 5.81 17.89l-47.34 145.72a16 16 0 0 1-15.22 11.05H173.39a16 16 0 0 1-15.22-11.05l-47.34-145.72a16 16 0 0 1 5.81-17.89l123.95-90.06a16 16 0 0 1 18.81 0Z" fill="#fff" stroke="#000" stroke-width="16" stroke-linejoin="round"/></svg>
