<svg fill="none" xmlns="http://www.w3.org/2000/svg" viewBox="0 0 500 500"><g fill="#12161A" stroke="#fff" stroke-width="16" stroke-linejoin="round"><path d="m258.36 14.51 186.37 114.25a16 16 0 0 1 7.63 13.22l5.76 218.52a16 16 0 0 1-8.36 14.49L257.63 479.26a16 16 0 0 1-15.26 0L50.24 374.99a16 16 0 0 1-8.36-14.49l5.76-218.52a16 16 0 0 1 7.63-13.22L241.64 14.51a16 16 0 0 1 16.72 0Z"/><path d="M237.94 474.01 114.07 332.04a16 16 0 0 1-3.09-5.34L49.97 148.43a16 16 0 0 1 12.06-20.88l184.89-36.3a16 16 0 0 1 6.16 0l184.9 36.3a16 16 0 0 1 12.05 20.88L389.02 326.7a16 16 0 0 1-3.09 5.34L262.06 474.01a16 16 0 0 1-24.12 0Z"/><path d="m263.86 100 122.97 213a16 16 0 0 1-13.85 24H127.02a16 16 0 0 1-13.85-24l122.97-213a16 16 0 0 1 27.72 0Z"/></g></svg>