<svg width="500" height="500" fill="none" xmlns="http://www.w3.org/2000/svg"><path d="m240.78 423.7-125.2-88.34a16 16 0 0 1-6.71-11.63l-13.91-152.6a16 16 0 0 1 9.23-15.97l139.1-64.25a16 16 0 0 1 13.42 0l139.1 64.25a16 16 0 0 1 9.23 15.98l-13.91 152.6a16 16 0 0 1-6.7 11.62l-125.2 88.34a16 16 0 0 1-18.46 0Z" fill="#12161A" stroke="#fff" stroke-width="16" stroke-linejoin="round"/><path d="m263.86 100 122.97 213a16 16 0 0 1-13.85 24H127.02a16 16 0 0 1-13.85-24l122.97-213a16 16 0 0 1 27.72 0Z" fill="#12161A" stroke="#fff" stroke-width="16" stroke-linejoin="round"/></svg>
