<svg fill="none" xmlns="http://www.w3.org/2000/svg" viewBox="0 0 1000 1000"><path d="m510 394.63 184.5 106.52a20 20 0 0 1 10 17.33v213.04a20 20 0 0 1-10 17.33L510 855.37a20 20 0 0 1-20 0L305.5 748.85a20 20 0 0 1-10-17.33V518.49a20 20 0 0 1 10-17.33L490 394.63a20 20 0 0 1 20 0Z" fill="#12161A" stroke="#fff" stroke-width="24"/><path d="M500 625v233m0-233.5L701.78 508M298 508l201.78 116.5" stroke="#fff" stroke-width="24" stroke-linecap="round"/><path d="m308.45 95.48 115.48 70.8a20 20 0 0 1 9.54 16.52l3.57 135.4a20 20 0 0 1-10.45 18.11l-119.05 64.6a20 20 0 0 1-19.08 0l-119.05-64.6a20 20 0 0 1-10.45-18.1l3.57-135.4a20 20 0 0 1 9.54-16.53l115.48-70.8a20 20 0 0 1 20.9 0Z" fill="#12161A" stroke="#fff" stroke-width="24" stroke-linejoin="round"/><path d="M298 95v155m-134 77.5L298.23 250m-.23 0 134.23 77.5" stroke="#fff" stroke-width="24" stroke-linecap="round"/><path d="m282.93 389.48-73.3-84.01a20 20 0 0 1-3.85-6.67l-36.1-105.49a20 20 0 0 1 15.06-26.1l109.4-21.47a20 20 0 0 1 7.71 0l109.4 21.47a20 20 0 0 1 15.07 26.1l-36.1 105.49a20 20 0 0 1-3.85 6.67l-73.3 84a20 20 0 0 1-30.14 0Z" fill="#12161A" stroke="#fff" stroke-width="24" stroke-linejoin="round"/><path d="m315.32 171 59.76 103.5c7.7 13.33-1.93 30-17.32 30H238.24c-15.4 0-25.01-16.67-17.32-30L280.68 171c7.7-13.33 26.94-13.33 34.64 0Zm375.15 181.18-66.9-47.21a20 20 0 0 1-8.39-14.53l-7.43-81.54a20 20 0 0 1 11.53-19.97l74.33-34.34a20 20 0 0 1 16.78 0l74.33 34.34a20 20 0 0 1 11.53 19.97l-7.43 81.54a20 20 0 0 1-8.39 14.53l-66.9 47.2a20 20 0 0 1-23.06 0Z" fill="#12161A" stroke="#fff" stroke-width="24" stroke-linejoin="round"/><path d="m719.32 179 52.83 91.5c7.7 13.33-1.93 30-17.32 30H649.17c-15.4 0-25.02-16.67-17.32-30l52.83-91.5c7.7-13.33 26.94-13.33 34.64 0Z" fill="#12161A" stroke="#fff" stroke-width="24" stroke-linejoin="round"/></svg>