<svg viewBox="0 0 512 512" fill="none" xmlns="http://www.w3.org/2000/svg"><path fill="#12161A" d="M0 0h512v512H0z"/><g filter="url(#a)"><path d="M230.912 79.38a48.001 48.001 0 0 1 50.176 0l113.992 69.885a48 48 0 0 1 22.895 39.656l3.526 133.662a48 48 0 0 1-25.088 43.453l-117.517 63.778a48.001 48.001 0 0 1-45.792 0l-117.517-63.778a47.999 47.999 0 0 1-25.088-43.453l3.526-133.662a48 48 0 0 1 22.895-39.656L230.912 79.38Z" fill="#12161A"/><path d="m271.68 94.726 113.992 69.884a30.002 30.002 0 0 1 14.31 24.786l3.525 133.662a29.999 29.999 0 0 1-15.68 27.158L270.31 413.994a30 30 0 0 1-28.62 0l-117.517-63.778a29.999 29.999 0 0 1-15.68-27.158l3.525-133.662a30.002 30.002 0 0 1 14.31-24.786L240.32 94.726a30 30 0 0 1 31.36 0Z" stroke="#fff" stroke-width="36" stroke-linejoin="round"/></g><path d="m233.395 394.715-69.043-79.129a30.02 30.02 0 0 1-5.779-10.009l-34.006-99.358c-5.888-17.205 4.761-35.65 22.605-39.153l103.049-20.228a30.007 30.007 0 0 1 11.558 0l103.049 20.228c17.844 3.503 28.493 21.948 22.605 39.153l-34.006 99.358a30.02 30.02 0 0 1-5.779 10.009l-69.043 79.129c-11.956 13.701-33.254 13.701-45.21 0Z" fill="#12161A" stroke="#fff" stroke-width="36" stroke-linejoin="round"/><path d="m281.981 191.08 43.232 74.88c11.547 20-2.887 45-25.981 45h-86.464c-23.094 0-37.528-25-25.981-45l43.232-74.88c11.547-20 40.415-20 51.962 0Z" fill="#12161A" stroke="#fff" stroke-width="36" stroke-linejoin="round"/><defs><filter id="a" x="54.482" y="36.302" width="403.035" height="435.324" filterUnits="userSpaceOnUse" color-interpolation-filters="sRGB"><feFlood flood-opacity="0" result="BackgroundImageFix"/><feColorMatrix in="SourceAlpha" values="0 0 0 0 0 0 0 0 0 0 0 0 0 0 0 0 0 0 127 0" result="hardAlpha"/><feOffset/><feGaussianBlur stdDeviation="18"/><feComposite in2="hardAlpha" operator="out"/><feColorMatrix values="0 0 0 0 1 0 0 0 0 1 0 0 0 0 1 0 0 0 0.5 0"/><feBlend in2="BackgroundImageFix" result="effect1_dropShadow_653_34"/><feBlend in="SourceGraphic" in2="effect1_dropShadow_653_34" result="shape"/></filter></defs></svg>