<svg fill="none" xmlns="http://www.w3.org/2000/svg" viewBox="0 0 512 512"><path fill="#12161A" d="M0 0h512v512H0z"/><g filter="url(#a)"><path d="M239.28 138.25a32 32 0 0 1 33.45 0l75.99 46.6a32 32 0 0 1 15.26 26.43l2.35 89.1a32 32 0 0 1-16.72 28.98l-78.35 42.52a32 32 0 0 1-30.52 0l-78.35-42.52a32 32 0 0 1-16.72-28.97l2.35-89.1a32 32 0 0 1 15.26-26.45l76-46.59Z" fill="#12161A"/><path d="m266.45 148.48 76 46.6a20 20 0 0 1 9.54 16.52l2.35 89.1a20 20 0 0 1-10.45 18.11l-78.35 42.52a20 20 0 0 1-19.08 0l-78.34-42.52a20 20 0 0 1-10.46-18.1l2.35-89.11a20 20 0 0 1 9.54-16.53l76-46.59a20 20 0 0 1 20.9 0Z" stroke="#fff" stroke-width="24" stroke-linejoin="round"/></g><path d="m240.93 348.48-46.03-52.76a20.02 20.02 0 0 1-3.85-6.67l-22.67-66.24a20 20 0 0 1 15.07-26.1l68.7-13.49c2.54-.5 5.16-.5 7.7 0l68.7 13.5a20 20 0 0 1 15.07 26.1l-22.67 66.23a20.02 20.02 0 0 1-3.85 6.67l-46.03 52.76a20 20 0 0 1-30.14 0Z" fill="#12161A" stroke="#fff" stroke-width="24" stroke-linejoin="round"/><path d="m273.32 212.72 28.82 49.92c7.7 13.33-1.92 30-17.32 30h-57.64c-15.4 0-25.02-16.67-17.32-30l28.82-49.92c7.7-13.33 26.94-13.33 34.64 0Z" fill="#12161A" stroke="#fff" stroke-width="24" stroke-linejoin="round"/><defs><filter id="a" x="121.66" y="109.53" width="268.69" height="290.22" filterUnits="userSpaceOnUse" color-interpolation-filters="sRGB"><feFlood flood-opacity="0" result="BackgroundImageFix"/><feColorMatrix in="SourceAlpha" values="0 0 0 0 0 0 0 0 0 0 0 0 0 0 0 0 0 0 127 0" result="hardAlpha"/><feOffset/><feGaussianBlur stdDeviation="12"/><feComposite in2="hardAlpha" operator="out"/><feColorMatrix values="0 0 0 0 1 0 0 0 0 1 0 0 0 0 1 0 0 0 0.5 0"/><feBlend in2="BackgroundImageFix" result="effect1_dropShadow_653_34"/><feBlend in="SourceGraphic" in2="effect1_dropShadow_653_34" result="shape"/></filter></defs></svg>