<svg viewBox="0 0 512 512" fill="none" xmlns="http://www.w3.org/2000/svg"><g clip-path="url(#a)"><path d="m276.906 40.968 151.99 93.179a40 40 0 0 1 19.08 33.047l4.7 178.216a39.999 39.999 0 0 1-20.906 36.211l-156.69 85.038a40.003 40.003 0 0 1-38.16 0L80.23 381.621a40 40 0 0 1-20.906-36.211l4.7-178.216a40 40 0 0 1 19.08-33.047l151.99-93.179a39.998 39.998 0 0 1 41.812 0Z" stroke="#12161A" stroke-width="48" stroke-linejoin="round"/><g filter="url(#b)"><path d="m225.86 440.953-92.057-105.506a39.996 39.996 0 0 1-7.705-13.345L80.756 189.626c-7.851-22.94 6.348-47.534 30.14-52.204l137.399-26.971a39.992 39.992 0 0 1 15.41 0l137.399 26.971c23.792 4.67 37.991 29.264 30.14 52.204l-45.342 132.476a39.996 39.996 0 0 1-7.705 13.345L286.14 440.953c-15.941 18.269-44.339 18.269-60.28 0Z" stroke="#12161A" stroke-width="48" stroke-linejoin="round"/></g><path d="m290.641 169.44 57.643 99.84c15.396 26.667-3.849 60-34.641 60H198.357c-30.792 0-50.037-33.333-34.641-60l57.643-99.84c15.396-26.667 53.886-26.667 69.282 0Z" stroke="#12161A" stroke-width="48" stroke-linejoin="round"/></g><defs><clipPath id="a"><path fill="#fff" d="M0 0h512v512H0z"/></clipPath><filter id="b" x="-9.427" y="21.701" width="530.854" height="520.953" filterUnits="userSpaceOnUse" color-interpolation-filters="sRGB"><feFlood flood-opacity="0" result="BackgroundImageFix"/><feColorMatrix in="SourceAlpha" values="0 0 0 0 0 0 0 0 0 0 0 0 0 0 0 0 0 0 127 0" result="hardAlpha"/><feOffset/><feGaussianBlur stdDeviation="32"/><feColorMatrix values="0 0 0 0 0.0705882 0 0 0 0 0.0862745 0 0 0 0 0.101961 0 0 0 1 0"/><feBlend in2="BackgroundImageFix" result="effect1_dropShadow_666_40"/><feBlend in="SourceGraphic" in2="effect1_dropShadow_666_40" result="shape"/></filter></defs></svg>